<svg width="57" height="27" fill="none" xmlns="http://www.w3.org/2000/svg"><path d="M23.948 1.232c-.792.12-1.38.324-1.764.612-.36.288-.612.744-.756 1.368-.12.624-.18 1.548-.18 2.772v20.088l-.864-.036-.972.036-15.624-19.8v13.824c0 1.416.072 2.46.216 3.132.144.648.456 1.128.936 1.44.48.288 1.26.492 2.34.612V26c-.936-.072-2.232-.108-3.888-.108-1.32 0-2.364.036-3.132.108v-.72c.792-.12 1.368-.324 1.728-.612.384-.288.636-.744.756-1.368.144-.624.216-1.548.216-2.772v-16.2c0-.912-.072-1.572-.216-1.98-.12-.408-.372-.684-.756-.828-.36-.144-.936-.24-1.728-.288v-.72C1.028.584 2.072.62 3.392.62A38 38 0 006.488.512L20.42 17.684V6.416c0-1.416-.072-2.448-.216-3.096-.144-.672-.456-1.152-.936-1.44-.48-.312-1.26-.528-2.34-.648v-.72c.936.072 2.232.108 3.888.108 1.344 0 2.388-.036 3.132-.108v.72zm24.145-.72a83.647 83.647 0 00-.253 6.12c0 1.128.036 2.04.108 2.736h-.828c-.575-2.952-1.367-5.028-2.375-6.228-.984-1.2-2.34-1.8-4.069-1.8h-.828v20.556c0 1.008.096 1.74.288 2.196.216.456.576.768 1.08.936.529.144 1.356.228 2.484.252V26a313.075 313.075 0 00-6.84-.108c-1.511 0-3.707.036-6.587.108v-.72c1.128-.024 1.944-.108 2.448-.252.528-.168.888-.48 1.08-.936.215-.456.323-1.188.323-2.196V1.34h-.791c-1.152 0-2.136.252-2.952.756-.793.504-1.477 1.344-2.053 2.52-.575 1.152-1.067 2.736-1.476 4.752h-.828c.072-.696.108-1.608.108-2.736 0-1.8-.084-3.84-.252-6.12 2.184.072 5.893.108 11.125.108 5.231 0 8.927-.036 11.087-.108z" fill="#fff"/><path d="M53.887 20.96c.936 0 1.68.252 2.232.756.552.48.828 1.152.828 2.016 0 .864-.276 1.548-.828 2.052-.552.48-1.296.72-2.232.72-.936 0-1.68-.24-2.232-.72-.552-.504-.828-1.188-.828-2.052 0-.864.276-1.536.828-2.016.552-.504 1.296-.756 2.232-.756z" fill="#41EAD4"/></svg>